<svg id="Capa_1" data-name="Capa 1" xmlns="http://www.w3.org/2000/svg" xmlns:xlink="http://www.w3.org/1999/xlink" viewBox="0 0 72.47 95.29"><defs><style>.cls-1{fill:none;}.cls-2{fill-rule:evenodd;}.cls-3{clip-path:url(#clip-path);}.cls-4{clip-path:url(#clip-path-2);}</style><clipPath id="clip-path" transform="translate(-18.87 -17.55)"><rect class="cls-1" x="18.86" y="27.78" width="68.87" height="49.09"/></clipPath><clipPath id="clip-path-2" transform="translate(-18.87 -17.55)"><rect class="cls-1" x="35" y="17.55" width="18.32" height="24.18"/></clipPath></defs><path class="cls-2" d="M28.88,63.87c-.49,1.06,1.07.84,1.9.84,1.43,0,8.86.08,9.25-.14s.36-.69-.27-.78l-4.68.08C34.09,63.87,29.44,63.73,28.88,63.87Z" transform="translate(-18.87 -17.55)"/><g class="cls-3"><path class="cls-2" d="M26.65,69.28h2.62a6.6,6.6,0,0,0,5.46,4.23c2.44.09,4.84-2.25,5.29-4.39l2.18.09c-.78,4.17-3.74,6.16-7.71,6.15a6.74,6.74,0,0,1-5.08-1.79c-.31-.23-.2-.1-.44-.39A8.83,8.83,0,0,1,26.65,69.28Zm9.05,0a1.41,1.41,0,0,1-1.41.79c-.84-.12-.88-.35-1.35-.74Zm-5.41,0,1.52,0A2.76,2.76,0,0,0,34.49,71c1.55,0,2.29-1.59,2.87-1.7L39,69.21a4.5,4.5,0,0,1-1.57,2.27C35,74,31.48,71.85,30.29,69.3Zm46.15-1.52c0-1.07,1-2.27,2-2.22s2.18.93,2.18,1.86C80.58,71.06,76.44,70.4,76.44,67.78Zm-56.18-.49c-.22-1.31,1.07-.78,3.09-.7l-.13.91A14.69,14.69,0,0,1,20.26,67.29Zm58.87,4.87a6.9,6.9,0,0,1-2.69-.62c-2.37-.93-2.12-3.56-2.28-4a7.48,7.48,0,0,1,1.61-1,3.16,3.16,0,0,0,.75,3.47c1.83,1.69,5.41.55,4.89-3-.25-1.64-1.61-1.91-2.24-2.25a11.75,11.75,0,0,1,1.41-.27,1.12,1.12,0,0,1,1.06.24A4.67,4.67,0,0,1,83,66.65a4,4,0,0,1-.07,2.76,4,4,0,0,1-1.29,2A4.07,4.07,0,0,1,79.13,72.16Zm3.45-7.77,2.92,0a7.22,7.22,0,0,1,.83,3.41c0,3.1-.88,3.67-2,5.28a5.29,5.29,0,0,1-3,2.23c-2.64.47-4.76.8-6.84-.79a12.57,12.57,0,0,1-3-3.32A3.69,3.69,0,0,1,71,69.46l2.31-1.23a5.3,5.3,0,0,0,1.57,3.45c1.87,1.49,5.95,2.06,7.87-.06a5.32,5.32,0,0,0,.14-6.86ZM67.67,69.18c0-.92,1.59-3.7,2.18-4.58a27.9,27.9,0,0,1,3-3.81,13.53,13.53,0,0,1,2.42-2c1.2-.74,1.89-1.31,3.19-1,2.85.75,2.48.22,4.86,1.83,1.68,1.14,1.31,1.41,2.26,2.3a2.62,2.62,0,0,1,.86,1.34c-4.39.72-6.66-.37-10.42,2L74.15,66.5c-.76.45-1.09.72-1.86,1.26A9.07,9.07,0,0,1,67.67,69.18ZM24,68.5c.25-1.15.2-1.68.65-3.41,1.25-4.8,5.25-8.62,9.56-10.77,3-1.52,6.7-2.44,10-1.15a5.17,5.17,0,0,1,1.9,1.34,2.84,2.84,0,0,1,1.21,2A11.22,11.22,0,0,1,48,59.16a14.85,14.85,0,0,1-1.24,5.65,11.51,11.51,0,0,1-1.09,2c-.3.52-1,1.75-1.56,1.69a26.63,26.63,0,0,0-6.1-.09ZM54.71,49.66c-.94,0-2.39-.32-3.46-.33-3.94,0-7.08.19-10.77.26-2.42,0-4.74.48-7.2.42-3-.06-1.89-3.55-.79-4.45.93-.74,5.35-.12,6.66.09a53.13,53.13,0,0,0,6.7.8,21.87,21.87,0,0,0,3.62,0,17.76,17.76,0,0,1,3.2-.46C55.58,46.21,56.39,47.6,54.71,49.66Zm20.78-.11a4.24,4.24,0,0,1-.68-.91c-.71-1.12-1.56-1.8-2.14-2.76A3.66,3.66,0,0,1,75.49,49.55Zm-20.81,1c.56,1.49.07,1.73-.93,2.48a9.94,9.94,0,0,0-3.94,7.66c0,2.94,1.67,3.33,4.43,3.41,2.47.06,5.07-.26,7.53-.26s4.61-.47,5.77-2c1.36-1.86,2.34-7.25,2-9.48a44.31,44.31,0,0,0-1.22-6.56c-.25-1-.48-2-.74-3l1.37.09C70.1,45,70.16,44.39,71.52,46l4.83,6.3c.91,1.36.81,2.79.57,4.58-.39.28-1.08.55-1.56.83-2.62,1.54-4,3.45-5.78,5.71l-1.69,2.85c-1,0-1.52.18-2.52.18l-8,.08c-1.81,0-3.58-.18-5.27-.17l-5.15.16a19.08,19.08,0,0,0,1.73-5.35,9.28,9.28,0,0,0,0-3.11c-.1-.44-.62-2.36-.77-2.7a7.61,7.61,0,0,0-2.71-2.68,11.26,11.26,0,0,0-7.42-.57A21,21,0,0,0,27,58.75a16.14,16.14,0,0,0-3.43,7c-1.61,0-1.32,0-1-1.35a9.31,9.31,0,0,1,.79-2.21c1.67-3.41,3.26-4.52,6-6.64,3.5-2.66,2.9-.94,3.08-4.63l11.34-.63C47.24,50.23,51.52,49.85,54.68,50.58ZM72,37.24c2.46.07,2.4,3.86-.08,3.69a5.33,5.33,0,0,0,.1-.79l-.11-1.68Zm-2.4.68c.68-.29.79-.72,1.56-.75C71,38.48,71.07,39.52,71,41c-1.78,0-1.58.22-2.16.86-.17.18-.17.15-.48.15-.9,0-1,0-1.07-.62-.22-1.82-.27-1-3.07-1.36-1-.13-1.89.25-2.15-.69,1-1.33,3.52.07,4.6-.66l0-1.06C68.55,37.73,68,37.48,69.56,37.92Zm-3.25-8.45a2.33,2.33,0,0,1,.79,1.44,2.63,2.63,0,0,1-.9,1.24Zm-1.37,1.45c0,2.23-.31,3.11,1,3.11a1.06,1.06,0,0,0,.81-.22l-.08,2.5c-1,0-1.3.11-1.36,1.18C63,37.36,60.8,37,60.8,39.65a1.69,1.69,0,0,0,1.81,1.57c1.13,0,2.14.13,3.3.17.29,1-.11.32.4,1.88a58.76,58.76,0,0,1,2,9.59,19.2,19.2,0,0,1-1.56,7.57c-1.4,2.38-4.1,2.1-7.13,2.26-.73,0-1.54,0-2.26,0a13.26,13.26,0,0,1-5.25-.2c-2-.67-.58-4.27,0-5.42a8,8,0,0,1,1-1.33c1.09-1.54,3-2.18,3.14-3.76,0-.51-.14-1.75-.07-1.9.69-1.57.67-.66.67-2.76,0-2.39-3.27-2.7-5.11-2.55-1.63.13-2,.56-4.19.5a49.71,49.71,0,0,1-6.59-.68,37.88,37.88,0,0,0-7.65-.67c-3.28,0-4.22,5.48-2.13,6.84l0,1.85-4,2.9a6,6,0,0,1-.81.63,15.13,15.13,0,0,0-3.82,4.68,12,12,0,0,0-1.44,4.3c-1.16.07-2.18.15-2.18,1.95,0,2.12,1.95,1.54,3.76,1.71.28,1.65,1.59.77,2.52,1,.34.09.68,1.41,1.29,2.45a9.3,9.3,0,0,0,1.66,2.06c2.35,2.45,4.61,2.34,7.45,2.34a10.18,10.18,0,0,0,5.31-2,9.14,9.14,0,0,0,2.61-4.82c1.56-.11,1.66.3,2.44-.9.19-.29.41-.74.79-.89,2.1-.83,5.92-.26,7.89-.26h6.95a37.41,37.41,0,0,1,5.08,0c-.29,1.68-1.42,2.9,1.38,2.74l1.69-.18c.85,2.8,1.15,2.6,2.75,4.31,2,2.09,3.6,2.38,6.21,2.38a8.82,8.82,0,0,0,5-1.28,7.47,7.47,0,0,0,1.14-1c1.25-1.23,2.78-3.73,2.78-5.69a11.12,11.12,0,0,0-.45-4.43c.2-.21.39-.35.61-.55,0-2.07-.14-1.76-1.45-3.39a10.85,10.85,0,0,0-2-2.07c-2.11-1.55-3.49-1.43-5.93-2.2A7.74,7.74,0,0,0,78,52.61a4.43,4.43,0,0,0-1.17-1.92c0-3.9-1-5.51-4.78-6.36a3.57,3.57,0,0,1-1.78-2c2.86-.08,4.78,0,4.78-3.74,0-1.49-1.94-2.78-3-2.78-3.28,0-1.55.64-3.55.59-.15-2,.07-3.66,0-5.47,0-.7-.94-3.14-2.6-3.14-.87,0-.82.43-.91,1.17C65,29.36,64.94,30.57,64.94,30.92Z" transform="translate(-18.87 -17.55)"/></g><path class="cls-2" d="M40.84,66.48c.18-.67,0-.75-.73-.75-2,0-11.69-.2-12.16.32-.88,1,1.68.53,2.35.53C32.16,66.58,40.13,66.69,40.84,66.48Z" transform="translate(-18.87 -17.55)"/><path class="cls-2" d="M30.88,62c-.24.81.26.83,1.09.83h5.87c1,0,1-.81,0-.84Z" transform="translate(-18.87 -17.55)"/><path class="cls-2" d="M78.79,67.08c-1.43-.31-1.41,1.1-.8,1.37C79,68.89,79.44,67.91,78.79,67.08Z" transform="translate(-18.87 -17.55)"/><g class="cls-4"><path d="M52.6,28.19a2,2,0,0,1-1.64-2V24.12a.38.38,0,0,0-.09-.25l-1.55-1.63a.36.36,0,0,0-.26-.11h-2a.36.36,0,0,0-.26.11L45.14,24a.36.36,0,0,0-.09.32.37.37,0,0,0,.22.25l3.26,1.33a1.62,1.62,0,0,1,.75,1H44.76a3.74,3.74,0,0,1-2.66-1.09l-1.65-1.68a.42.42,0,0,0-.26-.12h-1V19.2s0,0,.08,0h1.79l4.65-.47,3.92.63,1.75,1.74a4.11,4.11,0,0,1,1.21,2.92Zm-.68,4.94a2.22,2.22,0,0,1-1.49,2.1.35.35,0,0,0-.24.34v4.87l-.46.39-.56-.41V35.57a.34.34,0,0,0-.22-.34,2.22,2.22,0,0,1,.74-4.32,2.33,2.33,0,0,1,.92.19,2.42,2.42,0,0,1-.5.46.37.37,0,0,0-.09.5.36.36,0,0,0,.3.15.36.36,0,0,0,.2-.06,3.88,3.88,0,0,0,.69-.65A2.22,2.22,0,0,1,51.92,33.13Zm-2.14-6.9a2.27,2.27,0,0,0-.92-.95l0,0L46,24.14l1.23-1.28h1.66l1.33,1.4v2a1.94,1.94,0,0,0,0,.24A4.3,4.3,0,0,0,49.78,26.23Zm3.54,2.35V24.05a4.82,4.82,0,0,0-1.42-3.42L50.07,18.8a.36.36,0,0,0-.2-.11L45.79,18H45.7L41,18.52H39.2v-.6a.38.38,0,0,0-.37-.37H35.41a.37.37,0,0,0,0,.73h3.06V25.7H35.36a.36.36,0,1,0,0,.72h3.47A.38.38,0,0,0,39.2,26v-1.3h.85L41.6,26.3a4.43,4.43,0,0,0,3.16,1.33h1a3.34,3.34,0,0,0-.5,1.76,3.5,3.5,0,0,0,.12.91.37.37,0,0,0,.44.25.35.35,0,0,0,.25-.44,3,3,0,0,1-.09-.72,2.64,2.64,0,0,1,.67-1.76h3.07a.36.36,0,0,0,.36-.36v-.11a2.67,2.67,0,0,1,1,3.34,2.86,2.86,0,0,0-1.3-.31,2.95,2.95,0,0,0-1.25,5.62v4.78a.43.43,0,0,0,.16.29l.93.7a.36.36,0,0,0,.22.07.38.38,0,0,0,.25-.09l.78-.7a.4.4,0,0,0,.12-.27V35.81a2.94,2.94,0,0,0,.69-4.92,3.35,3.35,0,0,0,.36-1.5,3.82,3.82,0,0,0-.07-.68,2.73,2.73,0,0,0,1.07.22.36.36,0,0,0,.36-.35" transform="translate(-18.87 -17.55)"/></g><path d="M40.66,38.49l.14,1.14a.37.37,0,0,0,.34.31l1,.05h0a.4.4,0,0,0,.26-.1l3.38-3.39a2.93,2.93,0,0,0,2,0,.35.35,0,0,0,.22-.45.35.35,0,0,0-.45-.23,2.25,2.25,0,0,1-1.69-.1.35.35,0,0,0-.41.07l-3.45,3.44-.59,0-.08-.67,3.43-3.43a.38.38,0,0,0,.07-.41,2.21,2.21,0,0,1,.42-2.54,2.17,2.17,0,0,1,1.28-.63.38.38,0,0,0,.31-.41.36.36,0,0,0-.41-.3,2.86,2.86,0,0,0-1.68.83,2.93,2.93,0,0,0-.67,3.13l-3.38,3.38a.34.34,0,0,0-.1.3" transform="translate(-18.87 -17.55)"/><path d="M31.55,91.59h-.92L33.69,83c.53-2.23-2.76-2.83-3.52-.78l-3.31,9.4H23.38l3.41-7.53c.8-2.24-2.56-3-3.34-.83l-3.92,8.68c-.34.8-1,3.15,1.82,3.15h4.29l-1.52,4.17c-.83,2.23,2.62,3.11,3.47.85l1.82-5h1.24C33,95,33.21,91.59,31.55,91.59Z" transform="translate(-18.87 -17.55)"/><path d="M58,94.44c-1.06,2.9-2.3,3.68-3.24,3.68-.42,0-.67-.2-.67-.5a1.67,1.67,0,0,1,.11-.53l1.13-2.86a4.6,4.6,0,0,0,.37-1.72,3.16,3.16,0,0,0-.9-2.28,6.7,6.7,0,0,0,2.37-5c0-2.42-2.09-3.78-4.26-3.89-.11,0-.27,0-.48,0a3.89,3.89,0,0,0-2.26.67,1.52,1.52,0,0,0-1.52-1,2,2,0,0,0-1.89,1.41l-5.8,16.46a2.2,2.2,0,0,0-.11.62,1.61,1.61,0,0,0,1.77,1.5,2,2,0,0,0,1.91-1.31L47.6,91a1.54,1.54,0,0,0,1.7,1.5,4.69,4.69,0,0,0,1.41-.28.89.89,0,0,1,.92.92,2.27,2.27,0,0,1-.17.86l-.85,2.16a4.83,4.83,0,0,0-.32,1.59c0,2,1.61,3.27,3.89,3.27,2.51,0,5.16-1.55,6.63-6.1a2.23,2.23,0,0,0,.1-.53,1.34,1.34,0,0,0-1.36-1.34A1.67,1.67,0,0,0,58,94.44Zm-9.83-5,1.11-3.15a3.14,3.14,0,0,1,2.6-1.77,1.35,1.35,0,0,1,1.47,1.38A3.47,3.47,0,0,1,52,88.64a3.89,3.89,0,0,0-1.45-.28A2.89,2.89,0,0,0,48.15,89.44Z" transform="translate(-18.87 -17.55)"/><path d="M68.89,94.56a5.74,5.74,0,0,1-5.39,3.75c-1.68,0-2.74-.81-2.74-1.87a1.72,1.72,0,0,1,.12-.64l.18-.44a4.55,4.55,0,0,0,2.42.69A4.7,4.7,0,0,0,68,92.67a4.92,4.92,0,0,0,.18-1.27c0-2.19-1.72-3.87-4.32-3.87A5.08,5.08,0,0,0,59,91L57.68,95a5.31,5.31,0,0,0-.3,1.63c0,2.74,2.58,4.45,5.94,4.45a8.53,8.53,0,0,0,8.36-6,1.38,1.38,0,0,0,.09-.49,1.19,1.19,0,0,0-1.33-1.1A1.55,1.55,0,0,0,68.89,94.56Zm-5.06-4.31a1.1,1.1,0,0,1,1.06,1.2,1.52,1.52,0,0,1-.1.55,1.55,1.55,0,0,1-1.61,1A2.52,2.52,0,0,1,62,92.76l.48-1.38A1.56,1.56,0,0,1,63.83,90.25Z" transform="translate(-18.87 -17.55)"/><path d="M81,94.42c-1,2.76-2.28,3.89-3.36,3.89-.42,0-.64-.21-.64-.6a2,2,0,0,1,.11-.57L78.91,92a3.85,3.85,0,0,0,.25-1.26,3.31,3.31,0,0,0-3.41-3.23,3.6,3.6,0,0,0-2.21.65c-.14-.42-.71-.65-1.33-.65a1.5,1.5,0,0,0-1.5,1L66.86,99.23a2,2,0,0,0-.09.57,1.29,1.29,0,0,0,1.41,1.29,2.21,2.21,0,0,0,2.07-1.54c.8-2.23,1.91-5.39,2.69-7.6.63-1.15,1.43-1.7,2.08-1.7a.68.68,0,0,1,.71.72,1.94,1.94,0,0,1-.12.57l-1.68,4.74a4.82,4.82,0,0,0-.3,1.52c0,2.12,1.75,3.25,3.71,3.25,2.35,0,4.86-1.59,6.45-6.08a1.52,1.52,0,0,0,.11-.53,1.22,1.22,0,0,0-1.36-1.13A1.58,1.58,0,0,0,81,94.42Z" transform="translate(-18.87 -17.55)"/><path d="M88.46,94.56c-.92,2.53-2.37,3.75-3.71,3.75a1.19,1.19,0,0,1-1.33-1.13,1.89,1.89,0,0,1,.09-.51l2.26-6.42h1.49a1.66,1.66,0,0,0,1.8-1.59,1.12,1.12,0,0,0-1.27-1.13h-1L88.3,83a1.38,1.38,0,0,0,.07-.43,1.51,1.51,0,0,0-1.61-1.55,1.81,1.81,0,0,0-1.68,1.34l-1.85,5.13h-1a1.57,1.57,0,0,0-1.78,1.52,1.09,1.09,0,0,0,1,1.2h.76L80.33,95.8v0a5,5,0,0,0-.27,1.54c0,2.35,2.09,3.73,4.46,3.73,3,0,5.41-2.19,6.73-6a2.27,2.27,0,0,0,.09-.47A1.25,1.25,0,0,0,90,93.5,1.59,1.59,0,0,0,88.46,94.56Z" transform="translate(-18.87 -17.55)"/><path d="M30.53,106l-2.71,4.14-1-4.14H25.41L23,112.7h1.45l1.61-4.48,1.15,4.45h.34l2.94-4.42-.22,4.45h1.38L32,106Z" transform="translate(-18.87 -17.55)"/><path d="M35.24,112.84a3.21,3.21,0,0,0,3.23-3.16,2.28,2.28,0,0,0-2.41-2.32,3.18,3.18,0,0,0-3.22,3.16A2.28,2.28,0,0,0,35.24,112.84Zm.12-1.25a1.08,1.08,0,0,1-1.16-1.14,1.79,1.79,0,0,1,1.73-1.84,1.09,1.09,0,0,1,1.18,1.14A1.8,1.8,0,0,1,35.36,111.59Z" transform="translate(-18.87 -17.55)"/><path d="M42.87,108.71l.24-1.22H41.63l.27-1.35h-.25l-2.5,2.28-.06.29h1a16.43,16.43,0,0,0-.44,2.43,1.51,1.51,0,0,0,1.72,1.56h.76l.25-1.24h-.61c-.48,0-.74-.22-.74-.63,0-.14,0-.26.4-2.12Z" transform="translate(-18.87 -17.55)"/><path d="M45.59,112.84a3.2,3.2,0,0,0,3.23-3.16,2.28,2.28,0,0,0-2.41-2.32,3.19,3.19,0,0,0-3.22,3.16A2.28,2.28,0,0,0,45.59,112.84Zm.13-1.25a1.08,1.08,0,0,1-1.17-1.14,1.8,1.8,0,0,1,1.74-1.84,1.08,1.08,0,0,1,1.17,1.14A1.8,1.8,0,0,1,45.72,111.59Z" transform="translate(-18.87 -17.55)"/><path d="M57.7,107.82a1.85,1.85,0,0,0-2-1.87H53.07l-1.35,6.75h1.4l.46-2.34h1.07l.88,2.34H57l-1-2.54A2.53,2.53,0,0,0,57.7,107.82Zm-3.49-.62h1.24c.55,0,.84.28.85.71a1.22,1.22,0,0,1-1.26,1.2H53.83Z" transform="translate(-18.87 -17.55)"/><path d="M63.41,110.49a3.21,3.21,0,0,0,.12-.84,2.23,2.23,0,0,0-2.31-2.29,3.1,3.1,0,0,0-3.12,3.18,2.2,2.2,0,0,0,2.25,2.3A3.21,3.21,0,0,0,63.24,111H61.8a1.61,1.61,0,0,1-1.29.63,1,1,0,0,1-1.14-1.08v-.07Zm-2.29-2a1.06,1.06,0,0,1,1.15,1H59.59A1.72,1.72,0,0,1,61.12,108.5Z" transform="translate(-18.87 -17.55)"/><path d="M67.92,107.36a2.64,2.64,0,0,0-1.86.77l-.12-.64H65l-1,5.21h1.34l.55-2.76a1.54,1.54,0,0,1,1.47-1.34.7.7,0,0,1,.78.8,31.58,31.58,0,0,1-.62,3.3h1.34a24.56,24.56,0,0,0,.67-3.68A1.5,1.5,0,0,0,67.92,107.36Z" transform="translate(-18.87 -17.55)"/><path d="M74.07,108.71l.24-1.22H72.83l.28-1.35h-.26l-2.5,2.28-.06.29h1a16.43,16.43,0,0,0-.44,2.43,1.51,1.51,0,0,0,1.72,1.56h.76l.25-1.24h-.61c-.48,0-.74-.22-.74-.63,0-.14,0-.26.4-2.12Z" transform="translate(-18.87 -17.55)"/><path d="M79.54,107.49l-.3.64a2.1,2.1,0,0,0-1.7-.77,3.15,3.15,0,0,0-3.15,3.17,2.23,2.23,0,0,0,2.32,2.31,2.88,2.88,0,0,0,1.81-.63l0,.49h1l1-5.21ZM77,111.58a1.11,1.11,0,0,1-1.21-1.15,1.84,1.84,0,0,1,1.76-1.82,1.11,1.11,0,0,1,1.21,1.15A1.84,1.84,0,0,1,77,111.58Z" transform="translate(-18.87 -17.55)"/><path d="M80.93,112.7h1.33l1.42-7.08H82.34Z" transform="translate(-18.87 -17.55)"/></svg>